<?xml version="1.0" encoding="UTF-8" standalone="no"?><!DOCTYPE svg PUBLIC "-//W3C//DTD SVG 1.1//EN" "http://www.w3.org/Graphics/SVG/1.1/DTD/svg11.dtd"><svg width="100%" height="100%" viewBox="0 0 294 294" version="1.1" xmlns="http://www.w3.org/2000/svg" xmlns:xlink="http://www.w3.org/1999/xlink" xml:space="preserve" xmlns:serif="http://www.serif.com/" style="fill-rule:evenodd;clip-rule:evenodd;stroke-linejoin:round;stroke-miterlimit:1.41421;"><g><path d="M146.687,9.898c75.495,0 136.788,61.293 136.788,136.788c0,75.496 -61.293,136.789 -136.789,136.789c-75.495,0 -136.788,-61.293 -136.788,-136.789c0,-75.495 61.293,-136.788 136.789,-136.788Zm-87.275,67.374c-15.18,19.054 -24.256,43.183 -24.256,69.414c0,61.556 49.975,111.531 111.531,111.531c26.231,0 50.36,-9.076 69.414,-24.256l-156.689,-156.689Zm174.549,138.829c15.18,-19.054 24.256,-43.183 24.256,-69.415c0,-61.555 -49.975,-111.53 -111.53,-111.53c-26.232,0 -50.361,9.076 -69.415,24.256l156.689,156.689Z" style="fill:#fff;"/></g></svg>