<?xml version="1.0" encoding="UTF-8" standalone="no"?><!DOCTYPE svg PUBLIC "-//W3C//DTD SVG 1.1//EN" "http://www.w3.org/Graphics/SVG/1.1/DTD/svg11.dtd"><svg width="100%" height="100%" viewBox="0 0 294 294" version="1.1" xmlns="http://www.w3.org/2000/svg" xmlns:xlink="http://www.w3.org/1999/xlink" xml:space="preserve" xmlns:serif="http://www.serif.com/" style="fill-rule:evenodd;clip-rule:evenodd;stroke-linejoin:round;stroke-miterlimit:1.41421;"><path d="M118.783,177.333c0,-7.475 0.996,-13.828 2.99,-19.061c1.993,-5.232 5.357,-10.091 10.091,-14.575c6.976,-6.728 13.392,-12.583 19.247,-17.566c5.855,-4.983 10.901,-9.655 15.137,-14.015c4.235,-4.361 7.537,-8.472 9.904,-12.334c2.367,-3.862 3.55,-7.911 3.55,-12.146c0,-8.223 -2.554,-14.638 -7.661,-19.248c-5.108,-4.609 -11.524,-6.914 -19.248,-6.914c-11.711,0 -20.618,3.239 -26.722,9.717c-6.105,6.478 -9.531,14.327 -10.278,23.546l-57.556,-3.738c2.741,-26.411 12.458,-46.53 29.152,-60.358c16.693,-13.829 38.121,-20.743 64.283,-20.743c11.461,0 22.237,1.557 32.328,4.672c10.091,3.114 18.999,7.786 26.723,14.015c7.723,6.229 13.828,13.953 18.313,23.172c4.485,9.219 6.727,19.808 6.727,31.768c0,7.225 -0.747,13.766 -2.242,19.621c-1.495,5.855 -4.049,11.648 -7.662,17.379c-3.613,5.73 -8.347,11.523 -14.202,17.379c-5.855,5.855 -13.268,12.271 -22.238,19.247c-5.73,4.485 -9.592,8.845 -11.586,13.081c-1.993,4.236 -2.989,8.471 -2.989,12.707l0,10.839l-56.061,0l0,-16.445Zm-6.354,71.758c0,-4.734 0.872,-9.219 2.616,-13.455c1.744,-4.235 4.174,-7.91 7.288,-11.025c3.115,-3.114 6.79,-5.544 11.026,-7.288c4.235,-1.744 8.72,-2.616 13.454,-2.616c4.734,0 9.219,0.872 13.455,2.616c4.235,1.744 7.911,4.174 11.025,7.288c3.115,3.115 5.544,6.79 7.288,11.025c1.744,4.236 2.616,8.721 2.616,13.455c0,4.734 -0.872,9.219 -2.616,13.455c-1.744,4.235 -4.173,7.91 -7.288,11.025c-3.114,3.114 -6.79,5.544 -11.025,7.288c-4.236,1.744 -8.721,2.616 -13.455,2.616c-4.734,0 -9.219,-0.872 -13.454,-2.616c-4.236,-1.744 -7.911,-4.174 -11.026,-7.288c-3.114,-3.115 -5.544,-6.79 -7.288,-11.025c-1.744,-4.236 -2.616,-8.721 -2.616,-13.455Z" style="fill:#fff;fill-rule:nonzero;"/></svg>